PathFileType	4	(X/Y/Z)	C:/Users/opensim2020/Desktop/walking_exp_matlab/subject03_walking07_straight_03.trc																																																																																																																																								
DataRate	CameraRate	NumFrames	NumMarkers	Units	OrigDataRate	OrigDataStartFrame	OrigNumFrames																																																																																																																																				
100	100	7	46	mm	100	2394	306																																																																																																																																				
Frame#	Time	LFHD			RFHD			LBHD			RBHD			C7			T10			CLAV			STRN			RBAK			LSHO			LUPA			LELB			LFRM			LWRA			LWRB			LFIN			RSHO			RUPA			RELB			RFRM			RWRA			RWRB			RFIN			LASI			RASI			LPSI			RPSI			LTHI			LKNE			LTIB			LANK			LHEE			LTOE			RTHI			RKNE			RTIB			RANK			RHEE			RTOE			*39			*40			*41			*42			*43			*44			*45		
		X1	Y1	Z1	X2	Y2	Z2	X3	Y3	Z3	X4	Y4	Z4	X5	Y5	Z5	X6	Y6	Z6	X7	Y7	Z7	X8	Y8	Z8	X9	Y9	Z9	X10	Y10	Z10	X11	Y11	Z11	X12	Y12	Z12	X13	Y13	Z13	X14	Y14	Z14	X15	Y15	Z15	X16	Y16	Z16	X17	Y17	Z17	X18	Y18	Z18	X19	Y19	Z19	X20	Y20	Z20	X21	Y21	Z21	X22	Y22	Z22	X23	Y23	Z23	X24	Y24	Z24	X25	Y25	Z25	X26	Y26	Z26	X27	Y27	Z27	X28	Y28	Z28	X29	Y29	Z29	X30	Y30	Z30	X31	Y31	Z31	X32	Y32	Z32	X33	Y33	Z33	X34	Y34	Z34	X35	Y35	Z35	X36	Y36	Z36	X37	Y37	Z37	X38	Y38	Z38	X39	Y39	Z39	X40	Y40	Z40	X41	Y41	Z41	X42	Y42	Z42	X43	Y43	Z43	X44	Y44	Z44	X45	Y45	Z45	X46	Y46	Z46
																																																																																																																																											
230	2.29	900.75012	1615.60864	1374.56421	905.91595	1623.28088	1507.41248	771.74884	1575.82166	1385.35425	781.51306	1582.91907	1515.4043	741.14191	1418.3363	1448.30469	704.36487	1104.40479	1449.34705	861.14008	1339.36865	1442.45813	901.07208	1174.29272	1439.47424	691.80292	1246.19556	1552.32996	808.06274	1374.09521	1288.53821	781.62134	1174.76953	1223.08228	779.10272	1051.21411	1213.86548	796.45984	921.86823	1213.71753	809.56653	802.61292	1243.76208	782.58112	809.57281	1194.65588	792.62762	725.38837	1204.51221	828.08447	1368.13025	1603.30042	870.36389	1156.00232	1686.24414	914.20947	1053.81433	1702.18506	976.55157	932.23694	1700.91956	1034.29639	854.53729	1659.38257	1011.27893	838.11621	1705.36523	1058.90356	782.40668	1692.75842	875.935	940.07184	1334.51343	870.10382	944.04999	1572.49707	712.09192	955.40765	1378.69104	709.29797	973.02789	1527.53296	892.08521	644.1452	1281.64417	960.73254	479.46057	1311.49341	947.17053	284.98883	1307.49207	975.26501	75.82097	1339.39307	943.34106	37.03681	1381.98547	1124.72034	53.54068	1347.08582	782.73828	653.56317	1608.9552	767.72601	474.40292	1575.09363	689.5589	297.35709	1574.10583	633.66882	87.05942	1521.66174	589.28033	61.13266	1468.66016	773.01501	35.7527	1508.89954	NaN	NaN	NaN	821.84186	1679.54541	1429.59924	NaN	NaN	NaN	NaN	NaN	NaN	NaN	NaN	NaN	NaN	NaN	NaN	NaN	NaN	NaN
231	2.3	910.73535	1614.50793	1373.76343	916.12097	1622.4729	1507.01257	781.62622	1574.68457	1384.58337	791.4693	1581.96838	1514.64136	751.28931	1417.69556	1447.72168	713.77515	1103.6272	1447.69067	871.03625	1338.35645	1441.95325	910.57001	1173.18091	1439.22937	701.17932	1245.63281	1551.45618	818.30988	1373.12634	1287.72839	789.79803	1174.04663	1222.28357	785.67053	1050.51685	1212.94189	801.1424	920.98822	1212.68982	812.83337	801.65332	1242.96143	785.7699	808.83356	1193.85608	794.58441	724.44196	1203.8407	837.81482	1367.24951	1602.54492	880.77106	1155.66504	1685.98462	924.90674	1053.66675	1701.76282	988.83875	932.98035	1699.96191	1047.44482	856.24103	1657.82813	1024.84033	839.37207	1703.87537	1073.60449	784.85883	1691.24463	886.27173	938.72064	1334.16174	878.41119	943.24445	1572.26428	721.43494	954.065	1376.87317	717.8642	972.01471	1525.77771	899.24127	641.61182	1281.21191	968.04382	477.22241	1312.53699	962.19659	283.63647	1307.52222	999.95038	75.48714	1337.52661	969.90826	35.66432	1379.85657	1150.87512	58.36091	1345.20776	789.23895	653.32959	1608.66223	773.15259	474.1951	1575.10144	692.83514	297.85757	1573.82764	634.32562	88.14823	1521.57361	589.71954	62.71091	1468.56592	773.15552	35.68577	1509.01587	NaN	NaN	NaN	831.79352	1678.56006	1428.90637	NaN	NaN	NaN	NaN	NaN	NaN	NaN	NaN	NaN	NaN	NaN	NaN	NaN	NaN	NaN
232	2.31	920.65967	1613.30701	1372.72778	925.92719	1621.37122	1505.98035	791.69525	1573.61365	1383.71204	801.41064	1580.9967	1513.79016	761.19348	1416.79968	1446.8136	723.20111	1102.66553	1446.00684	880.91431	1337.33386	1441.34607	920.13458	1172.0636	1438.90039	710.53461	1244.99133	1550.50928	828.73804	1372.14429	1286.91113	797.72211	1173.30127	1221.78027	792.30975	1049.77283	1212.05591	806.198	920.06012	1211.745	816.50525	800.45605	1241.93591	789.27539	808.06396	1193.03723	796.89667	723.54535	1203.15784	847.43201	1366.29785	1601.75439	890.86414	1155.16064	1685.49207	935.47357	1053.40796	1701.25916	1000.77728	933.54248	1698.93469	1060.29346	857.76166	1656.33093	1038.03381	840.46509	1702.33191	1087.56885	786.72552	1689.3595	896.88367	937.43738	1333.85645	886.87714	942.49988	1572.11963	732.08307	952.78516	1374.97839	726.56232	970.88861	1523.79626	906.60004	639.06024	1280.60522	975.26178	474.74396	1313.58997	976.20532	282.5817	1307.68164	1022.75873	75.74079	1335.76062	994.61285	34.45607	1377.93677	1174.93835	64.08607	1343.43884	795.8515	653.08215	1608.32471	778.841	473.8891	1575.07153	696.26001	298.40454	1573.71753	635.00665	89.30701	1521.48962	590.14862	64.39388	1468.46362	773.3219	35.63963	1509.07983	NaN	NaN	NaN	841.85834	1677.44922	1427.93921	NaN	NaN	NaN	NaN	NaN	NaN	NaN	NaN	NaN	NaN	NaN	NaN	NaN	NaN	NaN
233	2.32	930.71277	1612.10217	1371.83923	935.98785	1620.427	1505.24438	801.75769	1572.44397	1382.82104	811.4303	1580.02429	1512.84619	771.13965	1415.9989	1445.8833	731.77502	1101.63513	1443.74402	890.86615	1336.33789	1440.7334	929.888	1171.03101	1438.6084	719.95398	1244.22754	1549.39807	839.13	1371.16101	1286.02625	806.36993	1172.43945	1220.87842	799.33667	1049.0354	1211.23474	811.68176	919.08789	1210.7843	820.47455	799.44257	1240.98889	793.25592	807.35156	1192.09631	799.59247	722.68121	1202.30969	856.99432	1365.32471	1600.9436	900.61987	1154.40784	1684.72241	945.81097	1053.02075	1700.66309	1012.40802	933.94299	1697.82605	1072.74414	859.18311	1654.94495	1050.78882	841.2962	1700.83105	1101.16821	788.52496	1687.63428	907.4267	936.10107	1333.42676	895.18591	941.6026	1571.5636	742.13702	951.42981	1372.98816	735.44843	969.76648	1521.71472	914.2843	636.50214	1279.79614	982.78192	472.57922	1314.78308	989.47083	281.84821	1307.83801	1043.53528	76.41093	1334.15771	1017.45776	33.75932	1376.3313	1196.70007	69.67123	1341.89063	802.6781	652.65814	1607.94434	784.8255	473.43024	1574.98389	700.07776	298.76395	1573.43726	635.81042	90.49917	1521.52612	590.55682	66.18246	1468.43652	773.45245	35.58565	1509.13269	NaN	NaN	NaN	851.91138	1676.44299	1427.11377	NaN	NaN	NaN	NaN	NaN	NaN	NaN	NaN	NaN	NaN	NaN	NaN	NaN	NaN	NaN
234	2.33	940.87512	1610.96301	1371.02026	946.10443	1619.51343	1504.50317	811.83325	1571.43335	1381.84497	821.36646	1579.15942	1511.95178	780.92212	1414.94617	1444.74377	742.54108	1100.72131	1442.32129	900.83606	1335.36975	1440.05029	939.72235	1170.01514	1438.22461	729.36847	1243.39978	1548.12488	849.69574	1370.1731	1285.05627	815.39178	1171.57434	1219.94897	806.73187	1048.35852	1210.30798	817.54871	918.17242	1209.98816	824.78619	798.43829	1240.03125	797.60437	806.63904	1191.13879	802.6424	721.82709	1201.51257	866.44781	1364.32507	1600.08105	910.49792	1153.74524	1683.99182	955.9574	1052.51025	1699.94519	1023.729	934.19543	1696.74194	1084.92969	860.31897	1653.59753	1063.11658	841.88647	1699.29712	1114.27209	790.1308	1686.09229	918.15198	934.89337	1333.05872	903.41357	940.7561	1570.60791	752.51923	950.55682	1370.88953	744.47528	968.58948	1519.58447	922.55176	634.21887	1278.6731	990.43433	470.55765	1316.05786	1002.0509	281.44122	1307.92407	1062.37292	77.31821	1332.88062	1037.32178	33.61011	1374.22339	1216.23535	74.46523	1340.76306	809.72394	652.15704	1607.53491	791.14557	472.77106	1574.70435	704.12958	299.17096	1573.28528	636.65521	91.84472	1521.43347	591.0575	68.06809	1468.40161	773.55481	35.52616	1509.18359	NaN	NaN	NaN	862.03802	1675.34619	1425.96155	NaN	NaN	NaN	NaN	NaN	NaN	NaN	NaN	NaN	NaN	NaN	NaN	NaN	NaN	NaN
235	2.34	951.18365	1609.91248	1370.27405	955.91803	1618.45972	1503.29456	821.91656	1570.45178	1380.78003	831.37109	1578.33386	1510.85571	790.81262	1414.02307	1443.52332	752.31696	1099.84717	1440.54919	910.85303	1334.4729	1439.28223	949.68005	1169.13123	1437.77661	738.75281	1242.46753	1546.61646	860.24231	1369.23083	1283.9552	824.73981	1170.74878	1219.02551	814.86346	1047.56763	1209.32227	823.84973	917.30804	1208.83533	829.59204	797.39807	1238.90625	802.39929	806.01758	1190.10791	806.14563	721.13477	1200.58923	875.80103	1363.42871	1599.14624	920.46625	1153.17139	1683.27844	965.9494	1051.96777	1699.15698	1034.71533	934.29126	1695.6416	1096.72253	861.29413	1652.29187	1074.95178	842.36255	1697.81189	1126.74402	791.36462	1684.46301	928.94226	933.81213	1332.69128	912.63031	940.11621	1569.99622	762.53107	949.62787	1368.80176	753.63715	967.4021	1517.50818	931.21899	632.21979	1277.8999	998.33636	468.6391	1317.19543	1013.82111	281.14789	1308.09131	1078.73901	77.96793	1331.94312	1054.83374	33.59503	1372.95007	1233.12952	77.857	1340.23022	817.09717	651.59778	1607.0304	797.36719	472.35843	1574.52026	708.39661	299.57553	1573.08606	637.63776	93.403	1521.45764	591.62622	70.20953	1468.44385	773.71948	35.51946	1509.20581	NaN	NaN	NaN	872.09589	1674.84863	1425.3457	NaN	NaN	NaN	NaN	NaN	NaN	NaN	NaN	NaN	NaN	NaN	NaN	NaN	NaN	NaN
236	2.35	961.40167	1608.93298	1369.27368	966.10938	1617.69116	1502.56067	832.13818	1569.65344	1379.62952	841.27405	1577.61963	1509.75989	800.82153	1413.06958	1442.08313	762.11139	1098.84338	1438.81677	920.93408	1333.70068	1438.45471	959.75488	1168.33887	1437.28345	748.17926	1241.4541	1544.93323	870.74628	1368.34546	1282.80554	834.50983	1169.99585	1218.005	823.23846	1046.78418	1208.35901	830.56952	916.47607	1207.86462	834.67902	796.39716	1237.88062	807.62036	805.39618	1189.02441	810.13342	720.47766	1199.55896	885.0683	1362.54077	1598.15393	929.88354	1152.34595	1682.11902	975.75653	1051.38855	1698.24487	1045.3501	934.26288	1694.45483	1108.05066	862.05829	1650.99316	1086.40515	842.65057	1696.38879	1138.66492	792.26538	1682.849	939.95441	933.03387	1332.28418	920.18292	938.45947	1570.07874	773.7702	948.78821	1366.95251	763.0542	966.27411	1515.48535	940.45044	630.77484	1277.3551	1006.89868	467.21262	1317.88269	1024.59375	280.67303	1308.3634	1092.1936	77.96555	1331.71521	1068.81067	33.16315	1372.65894	1246.78674	79.83356	1340.48438	824.7627	651.06055	1606.48926	804.37048	471.78168	1574.32202	713.02832	300.09982	1572.85474	638.78101	95.08928	1521.48608	592.29291	72.66718	1468.4917	773.82111	35.36565	1509.18616	NaN	NaN	NaN	882.30011	1673.92517	1424.10217	NaN	NaN	NaN	NaN	NaN	NaN	NaN	NaN	NaN	NaN	NaN	NaN	NaN	NaN	NaN
